<?xml version="1.0" encoding="UTF-8" standalone="no"?>
<!-- Created with Inkscape (http://www.inkscape.org/) -->

<svg
   width="322.16623mm"
   height="82.949051mm"
   viewBox="0 0 322.16623 82.949051"
   version="1.1"
   id="svg5"
   inkscape:version="1.1.2 (b8e25be833, 2022-02-05)"
   sodipodi:docname="NZXT 2016 (Purple).svg"
   xmlns:inkscape="http://www.inkscape.org/namespaces/inkscape"
   xmlns:sodipodi="http://sodipodi.sourceforge.net/DTD/sodipodi-0.dtd"
   xmlns="http://www.w3.org/2000/svg"
   xmlns:svg="http://www.w3.org/2000/svg">
  <sodipodi:namedview
     id="namedview7"
     pagecolor="#ffffff"
     bordercolor="#666666"
     borderopacity="1.0"
     inkscape:pageshadow="2"
     inkscape:pageopacity="0.0"
     inkscape:pagecheckerboard="0"
     inkscape:document-units="mm"
     showgrid="false"
     inkscape:zoom="0.45291836"
     inkscape:cx="950.50242"
     inkscape:cy="-110.39517"
     inkscape:window-width="1920"
     inkscape:window-height="1017"
     inkscape:window-x="-8"
     inkscape:window-y="-8"
     inkscape:window-maximized="1"
     inkscape:current-layer="layer1" />
  <defs
     id="defs2" />
  <g
     inkscape:label="Layer 1"
     inkscape:groupmode="layer"
     id="layer1"
     transform="translate(72.326071,-43.607271)">
    <g
       id="g1131"
       transform="matrix(0.36477156,0,0,0.36477156,-95.270202,13.002937)"
       style="fill:#51007a;fill-opacity:1">
	<polygon
   class="st0"
   points="757.2,83.9 757.2,143.8 816.8,143.8 816.8,311.3 886.5,311.3 886.5,143.8 946.1,143.8 946.1,83.9 "
   id="polygon1123"
   style="fill:#51007a;fill-opacity:1" />

	<polygon
   class="st0"
   points="664.1,311.3 740.5,311.3 666,196.5 739.2,83.9 667.2,83.9 628,142.3 591.1,83.9 514.8,83.9 588.9,198.6 515.9,311.3 590.4,311.3 627,253.5 "
   id="polygon1125"
   style="fill:#51007a;fill-opacity:1" />

	<polygon
   class="st0"
   points="271.3,83.9 205.7,83.9 205.7,194.8 205.8,196.7 128.2,83.9 62.9,83.9 62.9,311.3 128.5,311.3 128.5,191.6 210.5,311.3 271.3,311.3 "
   id="polygon1127"
   style="fill:#51007a;fill-opacity:1" />

	<polygon
   class="st0"
   points="306.5,141.2 389.6,141.2 301.7,311.3 491.2,311.3 491.2,253.6 403.5,253.6 493.1,83.9 306.5,83.9 "
   id="polygon1129"
   style="fill:#51007a;fill-opacity:1" />

</g>
  </g>
  <style
     type="text/css"
     id="style1121">
	.st0{fill:#231F20;}
</style>
</svg>
